<svg xmlns="http://www.w3.org/2000/svg" viewBox="0 0 512 512" width="512" height="512">
  <rect width="512" height="512" rx="115" fill="#FFFFFF"/>
  <g fill="#000000">
    <rect x="88.00" y="99.00" width="12.44" height="26" rx="5.0"/>
    <rect x="112.89" y="99.00" width="12.44" height="26" rx="5.0"/>
    <rect x="162.67" y="99.00" width="12.44" height="26" rx="5.0"/>
    <rect x="187.56" y="99.00" width="12.44" height="26" rx="5.0"/>
    <rect x="312.00" y="99.00" width="12.44" height="26" rx="5.0"/>
    <rect x="336.89" y="99.00" width="12.44" height="26" rx="5.0"/>
    <rect x="386.67" y="99.00" width="12.44" height="26" rx="5.0"/>
    <rect x="411.56" y="99.00" width="12.44" height="26" rx="5.0"/>
    <rect x="88.00" y="147.00" width="37.33" height="26" rx="5.0"/>
    <rect x="162.67" y="147.00" width="37.33" height="26" rx="5.0"/>
    <rect x="312.00" y="147.00" width="37.33" height="26" rx="5.0"/>
    <rect x="386.67" y="147.00" width="37.33" height="26" rx="5.0"/>
    <rect x="88.00" y="195.00" width="112.00" height="26" rx="5.0"/>
    <rect x="312.00" y="195.00" width="112.00" height="26" rx="5.0"/>
    <rect x="88.00" y="243.00" width="336.00" height="26" rx="5.0"/>
    <rect x="88.00" y="291.00" width="112.00" height="26" rx="5.0"/>
    <rect x="312.00" y="291.00" width="112.00" height="26" rx="5.0"/>
    <rect x="88.00" y="339.00" width="37.33" height="26" rx="5.0"/>
    <rect x="162.67" y="339.00" width="37.33" height="26" rx="5.0"/>
    <rect x="312.00" y="339.00" width="37.33" height="26" rx="5.0"/>
    <rect x="386.67" y="339.00" width="37.33" height="26" rx="5.0"/>
    <rect x="88.00" y="387.00" width="12.44" height="26" rx="5.0"/>
    <rect x="112.89" y="387.00" width="12.44" height="26" rx="5.0"/>
    <rect x="162.67" y="387.00" width="12.44" height="26" rx="5.0"/>
    <rect x="187.56" y="387.00" width="12.44" height="26" rx="5.0"/>
    <rect x="312.00" y="387.00" width="12.44" height="26" rx="5.0"/>
    <rect x="336.89" y="387.00" width="12.44" height="26" rx="5.0"/>
    <rect x="386.67" y="387.00" width="12.44" height="26" rx="5.0"/>
    <rect x="411.56" y="387.00" width="12.44" height="26" rx="5.0"/>
  </g>
</svg>
